<svg xmlns="http://www.w3.org/2000/svg" viewBox="0 0 900 1600" role="img" aria-labelledby="title desc">
  <title id="title">Tim đêm</title>
  <desc id="desc">Nền xanh tím đêm với trái tim phát sáng và những vì sao.</desc>
  <defs>
    <linearGradient id="bg" x1="0.05" y1="0" x2=".95" y2="1">
      <stop stop-color="#142249"/>
      <stop offset=".52" stop-color="#34225c"/>
      <stop offset="1" stop-color="#80436d"/>
    </linearGradient>
    <radialGradient id="halo" cx=".52" cy=".45" r=".48">
      <stop stop-color="#f5c3e4" stop-opacity=".35"/>
      <stop offset="1" stop-color="#f5c3e4" stop-opacity="0"/>
    </radialGradient>
    <filter id="glow"><feGaussianBlur stdDeviation="12"/></filter>
  </defs>
  <rect width="900" height="1600" fill="url(#bg)"/>
  <rect width="900" height="1600" fill="url(#halo)"/>
  <path d="M450 1000c-30-115-217-126-217 31 0 116 132 206 217 277 85-71 217-161 217-277 0-157-187-146-217-31Z" fill="none" stroke="#ffd8ef" stroke-width="9" opacity=".68"/>
  <path d="M450 1042c-26-80-150-82-150 24 0 78 91 139 150 190 59-51 150-112 150-190 0-106-124-104-150-24Z" fill="#f3a9d5" opacity=".12" filter="url(#glow)"/>
  <g fill="#fff" opacity=".8">
    <circle cx="120" cy="230" r="4"/><circle cx="210" cy="390" r="7"/><circle cx="760" cy="260" r="5"/>
    <circle cx="690" cy="640" r="4"/><circle cx="130" cy="820" r="5"/><circle cx="790" cy="1050" r="7"/>
    <circle cx="250" cy="1280" r="4"/><circle cx="680" cy="1410" r="5"/>
  </g>
  <g fill="none" stroke="#fff" stroke-linecap="round" opacity=".58">
    <path d="M120 260v50m-25-25h50" stroke-width="5"/>
    <path d="M742 410v68m-34-34h68" stroke-width="5"/>
    <path d="M170 1110v44m-22-22h44" stroke-width="4"/>
  </g>
  <path d="M92 600c68-52 132-48 196 0M612 850c73-58 144-53 212 0" fill="none" stroke="#dbb9ed" stroke-width="3" stroke-linecap="round" opacity=".35"/>
</svg>
